# xmcd CD database file
#
# Track frame offsets:
#	187
#	6257
#	24877
#	42837
#	59665
#	78437
#	94685
#	114292
#	133502
#	149260
#	163610
#
# Disc length: 2455 seconds
#
# Revision: 4
# Processed by: cddbd v1.5.1PL0 Copyright (c) Steve Scherf et al.
# Submitted via: CDex 1.51
#
DISCID=8509950b
DTITLE=Stryper - To Hell With The Devil
DYEAR=1986
DGENRE=Heavy Metal
TTITLE0=Abyss (To Hell With The Devil)
TTITLE1=To Hell With The Devil
TTITLE2=Calling On You
TTITLE3=Free
TTITLE4=Honestly
TTITLE5=The Way
TTITLE6=Sing-Along Song
TTITLE7=Holding On
TTITLE8=Rockin' The World
TTITLE9=All Of Me
TTITLE10=More Than A Man
EXTD=YEAR: 1986
EXTT0=
EXTT1=
EXTT2=
EXTT3=
EXTT4=
EXTT5=
EXTT6=
EXTT7=
EXTT8=
EXTT9=
EXTT10=
PLAYORDER=
